# xmcd CD database file
#
# Track frame offsets:
#	150
#	19522
#	36067
#	58552
#
# Disc length: 1075 seconds
#
# Revision: 0
# Processed by: cddbd v1.5PL3 Copyright (c) Steve Scherf et al.
# Submitted via: CDex 1.51
#
DISCID=25043104
DTITLE=Caural - Blurred July EP
DYEAR=2002
DGENRE=Hip-Hop
TTITLE0=Goodbye May Kasahara
TTITLE1=Blacktops and Plains (Featuring Diverse)
TTITLE2=Visuals
TTITLE3=Sipping Snake Blood Wine (Savath and Savalas Remix)
EXTD=YEAR: 2002
EXTT0=
EXTT1=
EXTT2=
EXTT3=
PLAYORDER=
